<?xml version="1.0" standalone="no"?>
<!DOCTYPE svg PUBLIC "-//W3C//DTD SVG 20010904//EN"
 "http://www.w3.org/TR/2001/REC-SVG-20010904/DTD/svg10.dtd">
<svg version="1.0" xmlns="http://www.w3.org/2000/svg"
 width="610.000000pt" height="610.000000pt" viewBox="0 0 610.000000 610.000000"
 preserveAspectRatio="xMidYMid meet">
<metadata>
Created by potrace 1.11, written by Peter Selinger 2001-2013
</metadata>
<g transform="translate(0.000000,610.000000) scale(0.100000,-0.100000)"
fill="#000000" stroke="none">
<path d="M3460 5688 c-22 -38 -40 -74 -40 -79 0 -5 -4 -9 -10 -9 -5 0 -10 -5
-10 -10 0 -6 -18 -40 -40 -76 -22 -36 -40 -68 -40 -70 0 -2 -17 -32 -38 -66
-21 -35 -41 -70 -45 -78 -4 -8 -11 -22 -17 -30 -5 -8 -51 -87 -101 -175 -51
-88 -96 -165 -101 -172 -12 -15 -24 -4 -54 52 -43 83 -98 181 -116 207 -10 14
-18 29 -18 33 0 4 -15 32 -34 63 -31 52 -172 299 -226 397 -36 66 -39 68 -140
64 -8 0 -37 0 -65 0 -27 0 -57 0 -65 0 -8 0 -51 0 -95 0 -44 0 -87 0 -95 0
-12 0 -151 0 -290 0 -8 0 -46 1 -83 2 -37 1 -70 -1 -73 -4 -4 -3 -17 -2 -30 3
-15 6 -26 6 -30 -1 -4 -7 -10 -6 -19 1 -7 6 -16 7 -19 2 -3 -5 -18 -7 -34 -4
-28 4 -33 -2 -91 -98 -33 -55 -61 -105 -61 -110 0 -6 -4 -10 -9 -10 -5 0 -12
-11 -15 -25 -4 -14 -11 -25 -16 -25 -6 0 -10 -5 -10 -10 0 -6 -18 -40 -40 -76
-22 -36 -40 -68 -40 -70 0 -3 -8 -17 -19 -32 -10 -15 -45 -72 -76 -127 -32
-55 -91 -155 -132 -223 l-73 -123 41 -75 c22 -42 49 -90 59 -107 10 -18 25
-43 33 -57 7 -14 28 -51 45 -82 18 -32 46 -84 64 -115 17 -32 57 -103 88 -158
31 -55 59 -107 63 -115 4 -8 18 -33 32 -55 13 -22 24 -44 25 -50 0 -7 -154
-10 -443 -10 -243 0 -449 -2 -458 -3 -17 -4 -45 -55 -198 -357 -45 -88 -85
-165 -91 -172 -5 -7 -10 -18 -10 -26 0 -7 -4 -17 -9 -23 -15 -15 -81 -146 -81
-160 0 -7 -3 -14 -8 -16 -4 -1 -29 -44 -55 -95 l-47 -92 100 -198 c55 -109
104 -203 110 -210 5 -7 10 -16 10 -20 0 -4 26 -58 57 -118 32 -61 87 -168 122
-237 l64 -126 106 -1 c58 0 262 0 454 0 204 -1 347 -5 347 -10 0 -5 -25 -52
-55 -105 -30 -52 -55 -99 -55 -105 0 -5 -3 -11 -7 -13 -9 -4 -31 -41 -69 -118
-15 -30 -30 -57 -33 -60 -6 -5 -24 -36 -58 -100 -10 -19 -20 -37 -23 -40 -3
-3 -14 -23 -26 -45 -22 -43 -51 -94 -91 -162 l-25 -43 30 -52 c44 -77 71 -125
107 -193 18 -33 58 -104 89 -159 31 -54 56 -100 56 -102 0 -3 11 -21 23 -42
13 -20 39 -66 58 -102 19 -36 66 -120 104 -187 l70 -123 522 0 c287 0 528 3
537 6 9 3 16 11 16 16 0 6 25 53 55 106 64 111 55 94 158 277 43 77 83 145 89
152 6 7 7 13 3 13 -5 0 -1 8 7 18 8 9 29 42 45 72 49 89 86 155 90 159 4 6 26
-24 49 -68 10 -20 37 -67 60 -106 22 -38 54 -95 71 -125 17 -30 92 -162 167
-293 75 -131 136 -242 136 -248 0 -6 191 -8 517 -7 l516 3 16 27 c9 15 63 105
121 200 58 95 109 181 115 190 5 10 46 77 90 149 44 72 90 148 101 168 12 20
40 66 63 103 22 37 41 72 41 78 0 5 4 10 9 10 25 0 15 39 -36 127 -30 54 -68
121 -84 150 -15 28 -69 124 -118 212 -50 88 -91 165 -91 171 0 5 -4 10 -10 10
-5 0 -10 4 -10 9 0 5 -25 52 -55 106 -30 53 -55 100 -55 104 0 4 75 7 168 8
92 1 306 2 475 4 l308 3 36 60 c20 34 56 91 80 128 24 37 43 69 43 71 0 3 32
55 70 116 39 62 70 116 70 121 0 6 4 10 9 10 5 0 13 9 16 21 7 20 44 81 65
106 5 7 10 14 10 16 0 4 81 138 123 205 l28 42 -49 88 c-27 48 -61 110 -77
137 -60 106 -69 122 -103 185 -19 36 -42 73 -50 83 -8 9 -11 17 -7 17 4 0 1 8
-7 18 -8 9 -30 44 -48 77 -19 33 -47 85 -64 116 -17 30 -49 88 -71 127 l-40
72 -100 0 c-537 4 -887 8 -890 12 -4 4 184 361 235 448 14 24 123 226 174 322
l46 87 -74 119 c-40 65 -81 131 -90 148 -9 16 -27 45 -39 65 -28 45 -107 175
-240 394 l-103 170 -502 1 -502 2 -40 -70z"/>
</g>
</svg>
